# xmcd
#
# Track frame offsets:
#	150
#	18789
#	38487
#	56710
#	72586
#
# Disc length: 1216 seconds
#
# Revision: 4289855455
# Processed by: cddbd v1.5.2PL0 Copyright (c) Steve Scherf et al.
# Submitted via: EZCDAudioConverter 8.0.2.1
#
DISCID=3a04be05
DTITLE=Lưu Hương Giang -  EP - Don't Turn Back . Đừng Ngoảnh Lại
DYEAR=2011
DGENRE=Contemporary Pop
TTITLE0=Nhiều nghệ sĩ - Đừng Ngoảnh Lại
TTITLE1=Lưu Hương Giang - Your Game
TTITLE2=Lưu Hương Giang - Hãy đến gần em (Time Out)
TTITLE3=Lưu Hương Giang - Quá yêu
TTITLE4=Soundtrack - Đừng Ngoảnh Lại
EXTD=
EXTT0=
EXTT1=
EXTT2=
EXTT3=
EXTT4=
PLAYORDER=
